HIERARCHY
ROOT hip
{
	OFFSET 0.000000 0.000000 0.000000 
	CHANNELS 6 Xposition Yposition Zposition Xrotation Zrotation Yrotation
	JOINT abdomen
	{
		OFFSET 0.000000 3.402643 0.000000 
		CHANNELS 3 Xrotation Zrotation Yrotation
		JOINT chest
		{
			OFFSET 0.000000 8.438565 -0.680529 
			CHANNELS 3 Xrotation Zrotation Yrotation
			JOINT neck
			{
				OFFSET 0.000000 10.207942 -0.272212 
				CHANNELS 3 Xrotation Zrotation Yrotation
				JOINT head
				{
					OFFSET 0.000000 3.130431 0.000000 
					CHANNELS 3 Xrotation Zrotation Yrotation
					End Site
					{
						OFFSET 0.000000 3.130435 0.000000 
					}
				}
			}
			JOINT lCollar
			{
				OFFSET 3.470700 6.669187 -0.816635 
				CHANNELS 3 Yrotation Zrotation Xrotation
				JOINT lShldr
				{
					OFFSET 3.198488 0.000000 0.000000 
					CHANNELS 3 Zrotation Yrotation Xrotation
					JOINT lForeArm
					{
						OFFSET 10.139888 0.000000 0.000000 
						CHANNELS 3 Yrotation Zrotation Xrotation
						JOINT lHand
						{
							OFFSET 8.370511 0.000000 0.000000 
							CHANNELS 3 Zrotation Yrotation Xrotation
							End Site
							{
								OFFSET 4.083176 0.000000 0.000000 
							}
						}
					}
				}
			}
			JOINT rCollar
			{
				OFFSET -3.470700 6.669187 -0.816635 
				CHANNELS 3 Yrotation Zrotation Xrotation
				JOINT rShldr
				{
					OFFSET -3.198488 0.000000 0.000000 
					CHANNELS 3 Zrotation Yrotation Xrotation
					JOINT rForeArm
					{
						OFFSET -10.139888 0.000000 0.000000 
						CHANNELS 3 Yrotation Zrotation Xrotation
						JOINT rHand
						{
							OFFSET -8.370511 0.000000 0.000000 
							CHANNELS 3 Zrotation Yrotation Xrotation
							End Site
							{
								OFFSET -4.083176 0.000000 0.000000 
							}
						}
					}
				}
			}
		}
	}
	JOINT lThigh
	{
		OFFSET 5.308129 -1.633274 1.361059 
		CHANNELS 3 Xrotation Zrotation Yrotation
		JOINT lShin
		{
			OFFSET -2.041588 -20.007561 0.000000 
			CHANNELS 3 Xrotation Zrotation Yrotation
			JOINT lFoot
			{
				OFFSET 0.000000 -19.190928 -1.224953 
				CHANNELS 3 Xrotation Yrotation Zrotation
				End Site
				{
					OFFSET 0.000000 -2.449906 4.627600 
				}
			}
		}
	}
	JOINT rThigh
	{
		OFFSET -5.308129 -1.633274 1.361059 
		CHANNELS 3 Xrotation Zrotation Yrotation
		JOINT rShin
		{
			OFFSET 2.041588 -20.007561 0.000000 
			CHANNELS 3 Xrotation Zrotation Yrotation
			JOINT rFoot
			{
				OFFSET 0.000000 -19.190928 -1.224953 
				CHANNELS 3 Xrotation Yrotation Zrotation
				End Site
				{
					OFFSET 0.000000 -2.449906 4.627600 
				}
			}
		}
	}
}
MOTION
Frames: 8
Frame Time: 0.033333
-4.075473 50.054676 0.388801 -0.824786 1.383640 -3.819367 0.000000 0.000000 0.000000 -6.333879 1.015352 1.328436 -1.964330 -0.663968 0.966845 9.263922 0.702997 -1.093787 -4.840425 -1.446494 -5.257267 -73.390327 13.583838 13.994889 -39.350529 -7.998620 6.897086 -12.532774 8.265122 -4.101594 12.095325 12.993925 -6.484026 68.979919 -26.996429 2.892943 43.904938 8.851891 1.454364 -6.963764 -8.917145 -3.255031 5.151779 3.142685 3.732642 0.419003 -3.537813 7.151477 -4.371020 0.065266 -1.721007 4.984063 -4.232874 -6.028507 0.917918 4.395603 -4.459240 -4.970822 0.024365 -0.839076 
-3.947565 50.047203 0.464036 -0.962949 1.305893 -3.682464 0.000000 0.000000 0.000000 -6.357179 0.966595 1.172202 -1.978876 -0.966665 0.947296 9.187672 1.435210 -1.240579 -4.925879 -1.515458 -5.276363 -73.126854 13.762045 14.279676 -39.447937 -8.265551 5.923428 -11.697539 7.769024 -4.008368 12.112714 13.142050 -6.528079 68.861092 -27.255833 2.561760 44.089802 8.805264 1.245060 -6.907182 -8.599834 -3.275988 5.305490 3.033941 3.674645 0.535868 -3.452742 7.181420 -4.525491 0.069038 -1.783825 5.153915 -4.255914 -6.064911 0.947213 4.328864 -4.739431 -5.004114 0.004282 -0.614148 
-3.837492 50.028580 0.549453 -1.175338 1.140319 -3.604161 0.000000 0.000000 0.000000 -6.301123 0.927574 1.064630 -1.977281 -0.927623 0.888714 9.173071 1.288797 -1.162255 -5.122473 -1.325039 -5.225564 -73.180115 14.148622 14.233024 -39.900837 -8.327284 4.939674 -10.926498 7.719385 -3.973249 11.994232 13.132892 -6.490954 69.107620 -27.245565 2.175287 43.714432 8.735245 1.514626 -6.904719 -7.804000 -3.301513 5.554195 3.046204 3.753708 0.623705 -3.455809 7.107057 -4.666861 0.054415 -1.684741 5.373148 -4.281597 -6.110628 1.112278 4.336389 -4.834125 -5.134223 0.011775 -0.430554 
-3.737278 50.037838 0.639079 -1.190869 1.091646 -3.555158 0.000000 0.000000 0.000000 -6.489685 0.869024 0.937688 -2.027799 -1.122932 0.820346 9.478203 1.200937 -1.132973 -5.272035 -1.707569 -5.400660 -73.057144 14.479125 13.999248 -39.567341 -8.298362 4.101388 -11.792401 8.729911 -4.126048 11.808660 12.740985 -6.592504 69.670578 -27.434504 1.673865 43.339298 8.693289 1.324980 -7.127439 -7.242049 -3.329281 5.664985 2.955699 3.709228 0.574315 -3.449817 7.178683 -4.741652 0.061345 -1.576061 5.727818 -4.254285 -6.125762 0.615842 4.242640 -5.055913 -4.969384 -0.014436 -0.261065 
-3.627243 50.035454 0.702011 -1.241203 0.994312 -3.428235 0.000000 0.000000 0.000000 -6.609766 0.800701 0.810741 -2.054990 -1.122960 0.712945 9.738548 0.976409 -1.015644 -5.371528 -1.581381 -5.496929 -73.156418 15.185995 13.875587 -40.565636 -8.219659 3.959719 -9.386327 7.339578 -3.875972 11.683064 12.593804 -6.669816 70.020760 -27.604809 1.420140 43.230412 8.712204 0.682405 -7.799647 -7.691170 -3.282478 5.777480 2.938480 3.731589 0.643203 -3.464588 7.008174 -4.874118 0.067419 -1.478542 6.007842 -4.272579 -6.129227 0.381142 4.169095 -5.219094 -4.921776 -0.001758 -0.075077 
-3.535916 50.034340 0.773166 -1.309697 0.838358 -3.408552 0.000000 0.000000 0.000000 -6.718269 0.742117 0.791202 -1.995631 -1.122969 0.673890 9.883993 1.015459 -1.035167 -5.380312 -1.726863 -5.613910 -73.004623 15.485236 13.870812 -40.641911 -8.260393 3.726103 -8.969282 7.018560 -3.838442 11.754173 12.702449 -6.789708 70.014961 -27.948874 1.206792 43.053383 8.707029 0.691386 -7.748404 -7.166815 -3.305417 5.897918 2.988760 3.830572 0.741192 -3.503806 6.826069 -5.026998 0.085053 -1.365422 6.236684 -4.158645 -6.019118 0.195956 4.063675 -5.348639 -4.873027 -0.017220 0.066930 
-3.452029 50.036938 0.824615 -1.328207 0.818853 -3.418317 0.000000 0.000000 0.000000 -6.808627 0.556586 0.800838 -2.024204 -1.220639 0.586013 9.919394 1.132599 -1.113450 -5.318166 -1.851796 -5.712396 -72.818481 15.313273 14.097165 -40.048576 -8.388260 3.909523 -9.167129 6.257576 -3.766812 11.824409 12.719638 -6.867537 70.078064 -28.027533 0.968284 42.729866 8.659002 0.774307 -7.638063 -7.199219 -3.313314 5.971112 2.918252 3.819298 0.721035 -3.495868 6.915181 -5.086558 0.063412 -1.300609 6.313632 -4.235242 -6.045795 0.206187 4.006371 -5.259252 -4.911719 -0.031615 0.220016 
-3.351770 50.030312 0.876635 -1.426425 0.662874 -3.427957 0.000000 0.000000 0.000000 -6.788811 0.556582 0.830134 -2.091798 -1.249945 0.537195 10.013685 1.230207 -1.181787 -5.447698 -1.879894 -5.691791 -72.591660 15.169483 14.569203 -40.013210 -8.657887 3.576545 -8.692733 6.125037 -3.750545 11.737681 12.569560 -6.825099 69.983604 -27.949869 1.405625 42.713211 8.838943 0.268252 -8.221752 -6.954874 -3.302770 6.130158 2.909707 3.771616 0.779664 -3.368946 7.007598 -5.206219 0.071788 -1.254934 6.516549 -4.195194 -6.034545 0.068357 4.021468 -5.406919 -4.832829 -0.046420 0.362242 
